<svg width="72" height="80" viewBox="0 0 72 80" fill="none" xmlns="http://www.w3.org/2000/svg">
<path d="M72 0V36H59.996L60 40C60 48.84 52.84 56 44 56H38.484L36.032 68.444L39.676 73.728C40.0903 74.3284 40.3326 75.0306 40.3766 75.7587C40.4206 76.4868 40.2647 77.2131 39.9257 77.859C39.5867 78.5049 39.0775 79.0457 38.4532 79.4231C37.829 79.8005 37.1134 80 36.384 80H0L9.252 39.904L0 36L16 0H72ZM64 8H21.2L10.62 31.8L18.56 35.148L10.056 72H28.768L27.532 70.208L35.84 28H64V8ZM51.996 36H42.42L40.056 48H44C46.1217 48 48.1566 47.1571 49.6569 45.6569C51.1571 44.1566 52 42.1217 52 40L51.996 36Z" fill="#1D1D35"/>
</svg>
